Coordinates
version=1
nRows=13
nColumns=34
inDegrees=yes

Units are S.I. units (second, meters, Newtons, ...)
If the header above contains a line with 'inDegrees', this indicates whether rotational values are in degrees (yes) or radians (no).

endheader
time	pelvis_tilt	pelvis_list	pelvis_rotation	pelvis_tx	pelvis_ty	pelvis_tz	hip_flexion_r	hip_adduction_r	hip_rotation_r	knee_angle_r	ankle_angle_r	subtalar_angle_r	mtp_angle_r	hip_flexion_l	hip_adduction_l	hip_rotation_l	knee_angle_l	ankle_angle_l	subtalar_angle_l	mtp_angle_l	lumbar_extension	lumbar_bending	lumbar_rotation	arm_flex_r	arm_add_r	arm_rot_r	elbow_flex_r	pro_sup_r	arm_flex_l	arm_add_l	arm_rot_l	elbow_flex_l	pro_sup_l
      5.76666670	     -5.64424064	      7.76615954	    -82.22577372	      0.79213140	      0.88889310	     -0.24928287	     26.31905921	     -2.28417062	     25.08193629	     15.66440630	     -7.31213558	    -24.30584236	      0.00000000	     14.10970559	      4.30329851	    -16.31821108	     10.55971759	      7.99424490	     20.90371258	      0.00000000	     -5.07460372	    -14.23039348	      2.25852347	      5.20319973	     -5.55415696	     82.83934897	     63.04128058	     84.73225888	     18.67575584	    -26.39956548	    564.51307414	      0.00000000	    119.74817918
      5.78333330	     -4.52082530	      7.13226445	    -81.81340509	      0.79012650	      0.88704067	     -0.25093980	     26.09483739	     -4.36820994	     25.67492986	     15.15947873	     -7.89639035	    -24.21707935	      0.00000000	     13.06434036	      5.21668619	    -16.88016538	     10.30375016	      7.66139526	     21.85126987	      0.00000000	     -7.81540547	    -15.97887497	     -2.27354446	      7.53025049	     -3.70507946	     85.65406030	     62.58582569	     86.44830122	      6.83437832	    -45.72915015	    419.94163559	     51.10697307	     42.88453912
      5.80000000	     -3.72973518	      7.17021977	    -81.45389250	      0.78987168	      0.88610982	     -0.25231253	     26.49978828	     -6.53014033	     25.56871218	     14.41482431	     -8.71222083	    -23.54366004	      0.00000000	     12.80228352	      5.96645806	    -17.03076533	     10.12728582	      7.36683002	     22.25159719	      0.00000000	     -7.81263121	    -16.89096286	     -2.80270942	      7.52105813	     -2.89049757	     85.42350170	     62.40712084	     86.30246065	      6.87401664	    -46.00318855	    420.02590664	     51.16965433	     42.85514146
      5.81666670	     -2.93808823	      6.97648282	    -81.11021265	      0.78854200	      0.88556485	     -0.25233086	     26.67055432	     -8.44650425	     25.54209966	     14.01679301	     -9.13522133	    -23.68481643	      0.00000000	     12.03856729	      6.63962295	    -17.31541235	      9.41654074	      7.03783867	     23.20237794	      0.00000000	     -8.11611320	    -17.78305274	     -3.51526403	      7.47503331	     -1.55688208	     84.93354793	     60.97347965	     85.85349588	      6.74007179	    -46.57776602	    420.47535111	     51.87745232	     42.83171664
      5.83333330	     -2.51574430	      6.76731360	    -80.73602308	      0.78512392	      0.88622233	     -0.25260875	     26.83837848	     -9.49743523	     25.61982187	     13.83940220	    -10.30197154	    -25.45449016	      0.00000000	     11.57333141	      6.68109252	    -17.44363921	      9.17604315	      7.53737736	     23.52835280	      0.00000000	     -8.54272866	    -18.37313349	     -3.95083621	      7.51030263	     -0.50897542	     84.53366444	     59.44999018	     85.21671101	      7.10023171	    -47.22236443	    420.90168358	     52.57425915	     42.79735831
      5.85000000	     -2.57362057	      6.72154041	    -80.70124487	      0.78173962	      0.88747309	     -0.25312097	     27.56023704	     -9.32137146	     24.73130605	     14.32124022	    -10.82741993	    -25.97117524	      0.00000000	     11.15824260	      6.18273737	    -17.74380879	      8.52404444	      8.01323097	     23.28740820	      0.00000000	     -8.65255811	    -18.47234010	     -3.96865958	      7.64671548	     -0.34024436	     84.45706129	     59.36858230	     85.15525356	      7.24073001	    -47.48923736	    420.87963819	     52.48516123	     42.78616898
      5.86666670	     -2.90296542	      6.82300605	    -80.66545895	      0.78101109	      0.88895763	     -0.25488944	     28.40912662	     -8.20338607	     24.10841936	     14.75202248	    -16.94844584	    -34.49026257	      0.00000000	     10.93393128	      5.52836849	    -17.06333518	      7.84744341	      8.16165980	     21.76575157	      0.00000000	     -8.53473262	    -18.37591817	     -3.83614844	      7.52093146	      0.08013846	     84.02027383	     57.83059261	     84.18216133	      7.74009846	    -47.56299526	    421.64064207	     52.39005966	     42.75585446
      5.88333330	     -3.44849305	      6.80298605	    -80.94656920	      0.78280717	      0.89186718	     -0.25825585	     29.71102065	     -6.63246181	     20.43926537	     15.88378309	    -18.92281568	    -35.00000000	      0.00000000	     10.44446612	      4.83194317	    -16.79694570	      6.81858611	      7.78379649	     20.16834240	      0.00000000	     -8.60094359	    -17.90150170	     -3.41372373	      7.70698385	      0.03260167	     83.74512325	     56.86412263	     83.53194855	      8.26076995	    -47.10981706	    421.94283728	     51.73566410	     42.70764088
      5.90000000	     -3.86268266	      6.76478592	    -81.30362025	      0.78390825	      0.89366422	     -0.26113649	     31.05279044	     -5.22233812	     16.15842545	     17.05886653	    -20.42963146	    -35.00000000	      0.00000000	      9.81251060	      4.46643859	    -16.39447010	      5.56699918	      6.71153090	     18.28891612	      0.00000000	     -8.75792274	    -17.51537216	     -2.87367518	      8.13713988	      0.15398056	     82.97871201	     54.98883635	     82.86085265	      8.82621381	    -46.47524379	    422.14705318	     50.74516752	     42.67779571
      5.91666670	     -4.09558776	      6.63105958	    -81.61410534	      0.78452931	      0.89456466	     -0.26311054	     32.02433880	     -4.21332840	     12.29089950	     17.93759377	    -21.44647873	    -35.00000000	      0.00000000	      9.09412821	      4.41856292	    -15.89177930	      4.44216307	      5.45886720	     16.28410773	      0.00000000	     -9.04271680	    -17.19149452	     -2.33074773	      8.57404230	      0.08131677	     82.12127619	     53.22327855	     82.07483032	      9.51044141	    -45.73502980	    422.46111649	     49.71286457	     42.69743583
      5.93333330	     -4.26317954	      6.39139986	    -81.82741149	      0.78707461	      0.89522942	     -0.26525101	     32.47536358	     -3.45757124	      9.27588087	     18.32929726	    -22.08012684	    -35.00000000	      0.00000000	      8.42004720	      4.49962830	    -15.52213329	      3.81603596	      4.52447990	     15.10563907	      0.00000000	     -9.55413806	    -16.93883490	     -1.80935483	      9.03862011	      0.25399041	     81.27130618	     51.54202148	     81.33131399	     10.23436786	    -45.10298393	    422.77940273	     48.92409597	     42.76289082
      5.95000000	     -4.36655688	      6.17488255	    -82.01240758	      0.79142211	      0.89569747	     -0.26779885	     32.59953244	     -2.88059837	      7.18348586	     18.35041150	    -22.55245319	    -35.00000000	      0.00000000	      7.96016756	      4.76506274	    -15.19517508	      3.66969186	      3.64897169	     14.65545544	      0.00000000	     -9.99024947	    -16.67261273	     -1.22247766	      9.38356488	      0.62405875	     80.67177139	     50.19505177	     80.59755942	     10.93069969	    -44.25490593	    423.20872583	     48.24240472	     42.88660691
      5.96666670	     -4.45691465	      6.02342446	    -82.18139173	      0.79448511	      0.89533480	     -0.26928329	     32.61696888	     -2.39675450	      5.68916923	     18.35270193	    -22.87260789	    -35.00000000	      0.00000000	      7.78165416	      5.09102876	    -15.03645032	      4.05561759	      3.03510047	     15.17489791	      0.00000000	    -10.31478531	    -16.38900376	     -0.60829826	      9.64356335	      1.24822513	     80.29059986	     48.96369523	     79.86268880	     11.57087830	    -43.25837295	    423.69460987	     47.45792534	     43.06061132
